<svg width="21" height="20" viewBox="0 0 21 20" fill="none" xmlns="http://www.w3.org/2000/svg">
<path d="M0.567326 9.69563L9.94841 0.384377C10.071 0.262253 10.2168 0.165418 10.3773 0.0994493C10.5377 0.0334804 10.7098 -0.000317693 10.8835 2.2504e-06H19.6384C19.7887 2.2504e-06 19.9328 0.0592654 20.0391 0.164755C20.1454 0.270244 20.2051 0.413318 20.2051 0.562502V9.25219C20.2054 9.4246 20.1713 9.59537 20.1049 9.75466C20.0384 9.91395 19.9409 10.0586 19.8178 10.1803L10.4367 19.4916C10.3139 19.6135 10.1682 19.7101 10.0077 19.7761C9.84728 19.8421 9.67531 19.876 9.50165 19.876C9.32798 19.876 9.15602 19.8421 8.99558 19.7761C8.83513 19.7101 8.68935 19.6135 8.56656 19.4916L0.567326 11.5519C0.444521 11.43 0.347105 11.2853 0.280643 11.1261C0.21418 10.9668 0.179972 10.7961 0.179972 10.6238C0.179972 10.4514 0.21418 10.2807 0.280643 10.1214C0.347105 9.9622 0.444521 9.81751 0.567326 9.69563ZM1.36923 10.7559L9.36847 18.6956C9.38601 18.7131 9.40685 18.7269 9.42978 18.7363C9.45271 18.7458 9.47729 18.7506 9.50212 18.7506C9.52695 18.7506 9.55153 18.7458 9.57446 18.7363C9.59739 18.7269 9.61823 18.7131 9.63577 18.6956L19.0159 9.38438C19.0514 9.34938 19.0714 9.30184 19.0716 9.25219V1.125H10.8835C10.8335 1.12521 10.7856 1.1451 10.7503 1.18031L1.36923 10.4906C1.35167 10.508 1.33773 10.5287 1.32823 10.5515C1.31872 10.5742 1.31383 10.5986 1.31383 10.6233C1.31383 10.6479 1.31872 10.6723 1.32823 10.6951C1.33773 10.7178 1.35167 10.7385 1.36923 10.7559ZM14.5379 4.6875C14.5379 4.87292 14.5933 5.05418 14.6971 5.20835C14.8009 5.36252 14.9484 5.48268 15.121 5.55364C15.2936 5.6246 15.4835 5.64316 15.6667 5.60699C15.8499 5.57081 16.0182 5.48153 16.1503 5.35041C16.2824 5.2193 16.3724 5.05226 16.4088 4.8704C16.4452 4.68854 16.4265 4.50004 16.3551 4.32874C16.2836 4.15743 16.1625 4.01101 16.0072 3.908C15.8518 3.80499 15.6692 3.75 15.4824 3.75C15.2319 3.75 14.9917 3.84877 14.8145 4.02459C14.6374 4.20041 14.5379 4.43886 14.5379 4.6875Z" fill="black"/>
</svg>
