<svg width="90" height="90" viewBox="0 0 90 90" fill="none" xmlns="http://www.w3.org/2000/svg">
<g clip-path="url(#clip0_436_1263)">
<path d="M45 0C20.1473 0 0 20.1473 0 45C0 69.8541 20.1473 90 45 90C69.8541 90 90 69.8541 90 45C90 20.1473 69.8541 0 45 0ZM45 84.4636C23.2889 84.4636 5.625 66.7111 5.625 44.9998C5.625 23.2887 23.2889 5.62482 45 5.62482C66.7111 5.62482 84.375 23.2888 84.375 44.9998C84.375 66.7108 66.7111 84.4636 45 84.4636ZM62.9592 28.5342L36.5568 55.1025L24.6669 43.2127C23.5687 42.1144 21.7884 42.1144 20.6887 43.2127C19.5904 44.3109 19.5904 46.0912 20.6887 47.1895L34.6091 61.1114C35.7074 62.2083 37.4877 62.2083 38.5874 61.1114C38.714 60.9848 38.8223 60.8469 38.9208 60.7036L66.9389 32.5124C68.0358 31.4141 68.0358 29.6338 66.9389 28.5342C65.8392 27.4359 64.0589 27.4359 62.9592 28.5342Z" fill="#89C56B"/>
</g>
<defs>
<clipPath id="clip0_436_1263">
<rect width="90" height="90" fill="white"/>
</clipPath>
</defs>
</svg>
