<svg width="36" height="36" viewBox="0 0 36 36" fill="none" xmlns="http://www.w3.org/2000/svg">
<rect width="36" height="36" fill="white"/>
<path fill-rule="evenodd" clip-rule="evenodd" d="M7.83601 6.56355C7.48453 6.21208 6.91468 6.21208 6.56321 6.56355C6.21174 6.91502 6.21174 7.48487 6.56321 7.83634L7.83839 9.11152C8.23399 8.6596 8.65926 8.23433 9.11118 7.83873L7.83601 6.56355ZM11.3434 6.25254L9.74519 4.65436C8.33931 3.24847 6.05991 3.24847 4.65402 4.65436C3.24814 6.06025 3.24814 8.33964 4.65402 9.74553L6.25221 11.3437C5.13667 13.3087 4.49961 15.5814 4.49961 17.9999C4.49961 21.929 6.17813 25.4661 8.85722 27.9332L6.69502 30.0954C6.16781 30.6226 6.16781 31.4773 6.69502 32.0045C7.22222 32.5317 8.077 32.5317 8.6042 32.0045L11.0392 29.5696C13.0716 30.795 15.4533 31.4999 17.9996 31.4999C20.5543 31.4999 22.9432 30.7904 24.98 29.5575L27.427 32.0045C27.9542 32.5317 28.809 32.5317 29.3362 32.0045C29.8634 31.4773 29.8634 30.6226 29.3362 30.0954L27.1586 27.9178C29.828 25.4514 31.4996 21.9209 31.4996 17.9999C31.4996 15.5814 30.8625 13.3087 29.747 11.3437L31.3452 9.74553C32.7511 8.33964 32.7511 6.06025 31.3452 4.65436C29.9393 3.24847 27.6599 3.24847 26.254 4.65436L24.6558 6.25254C22.6908 5.13701 20.4181 4.49994 17.9996 4.49994C15.5811 4.49994 13.3084 5.13701 11.3434 6.25254ZM26.888 7.83873C27.34 8.23433 27.7652 8.6596 28.1608 9.11152L29.436 7.83634C29.7875 7.48487 29.7875 6.91502 29.436 6.56355C29.0845 6.21208 28.5147 6.21208 28.1632 6.56355L26.888 7.83873ZM17.9996 7.19994C15.7381 7.19994 13.6427 7.89355 11.9093 9.07953C10.7996 9.83882 9.83849 10.8 9.0792 11.9097C7.89321 13.643 7.19961 15.7384 7.19961 17.9999C7.19961 23.9646 12.0349 28.7999 17.9996 28.7999C23.9643 28.7999 28.7996 23.9646 28.7996 17.9999C28.7996 15.7384 28.106 13.643 26.92 11.9097C26.1607 10.8 25.1996 9.83882 24.0899 9.07953C22.3565 7.89355 20.2611 7.19994 17.9996 7.19994ZM17.9996 10.7999C18.7452 10.7999 19.3496 11.4044 19.3496 12.1499V17.0999H23.8496C24.5952 17.0999 25.1996 17.7044 25.1996 18.4499C25.1996 19.1955 24.5952 19.7999 23.8496 19.7999H17.9996C17.254 19.7999 16.6496 19.1955 16.6496 18.4499V12.1499C16.6496 11.4044 17.254 10.7999 17.9996 10.7999Z" fill="black"/>
</svg>
