<svg width="36" height="36" viewBox="0 0 36 36" fill="none" xmlns="http://www.w3.org/2000/svg">
<rect width="36" height="36" fill="white"/>
<path fill-rule="evenodd" clip-rule="evenodd" d="M9.68611 11.214C9.68611 6.97609 13.2019 3.59998 17.4647 3.59998H18.5361C22.7989 3.59998 26.3147 6.97609 26.3147 11.214V12.258C26.3147 14.9802 24.864 17.3468 22.6966 18.6914C27.256 20.054 30.6004 24.194 30.6004 29.136C30.6004 30.9714 29.0833 32.4 27.2861 32.4H8.71468C6.91746 32.4 5.40039 30.9714 5.40039 29.136C5.40039 24.194 8.74475 20.054 13.3042 18.6914C11.1368 17.3468 9.68611 14.9802 9.68611 12.258V11.214ZM17.4647 6.29998C14.6266 6.29998 12.3861 8.53284 12.3861 11.214V12.258C12.3861 14.9391 14.6266 17.172 17.4647 17.172H18.5361C21.3741 17.172 23.6147 14.9391 23.6147 12.258V11.214C23.6147 8.53284 21.3741 6.29998 18.5361 6.29998H17.4647ZM16.5718 20.916C11.86 20.916 8.10039 24.629 8.10039 29.136C8.10039 29.4147 8.3422 29.7 8.71468 29.7H27.2861C27.6586 29.7 27.9004 29.4147 27.9004 29.136C27.9004 24.629 24.1408 20.916 19.429 20.916H16.5718Z" fill="black"/>
</svg>
